<svg width="26" height="23" viewBox="0 0 26 23" fill="none" xmlns="http://www.w3.org/2000/svg">
<path fill-rule="evenodd" clip-rule="evenodd" d="M0 -62C0 -67.5228 4.47711 -72 9.99996 -72H1910C1915.52 -72 1920 -67.5228 1920 -62V22.99C1920 22.9955 1920 23 1919.99 23V23C1919.98 23 1919.98 22.9957 1919.98 22.9903C1919.45 9.65131 1908.47 -1 1895 -1H1636.52C1631.46 -1 1627.3 -4.8327 1625.81 -9.67391C1619.54 -30.1277 1600.51 -45 1578 -45H551C528.492 -45 509.458 -30.1277 503.188 -9.6739C501.704 -4.8327 497.545 -1 492.481 -1H25C11.531 -1 0.549843 9.65132 0.0200166 22.9903C0.0198033 22.9957 0.0153857 23 0.0100103 23V23C0.00448174 23 0 22.9955 0 22.99V-62Z" fill="#7027E2"/>
</svg>
