<svg width="40" height="40" viewBox="0 0 40 40" fill="none" xmlns="http://www.w3.org/2000/svg">
<path d="M19.1 7.4H19.8819C25.367 7.4 28.1095 7.4 29.1505 8.38512C30.0505 9.23666 30.4493 10.4911 30.2063 11.706C29.9252 13.1114 27.6862 14.6951 23.2081 17.8626L15.8919 23.0374C11.4138 26.2049 9.17478 27.7886 8.8937 29.194C8.65074 30.4089 9.04955 31.6633 9.94945 32.5149C10.9905 33.5 13.733 33.5 19.2181 33.5H20.9M12.8 7.4C12.8 10.3823 10.3823 12.8 7.4 12.8C4.41766 12.8 2 10.3823 2 7.4C2 4.41766 4.41766 2 7.4 2C10.3823 2 12.8 4.41766 12.8 7.4ZM38 32.6C38 35.5823 35.5823 38 32.6 38C29.6177 38 27.2 35.5823 27.2 32.6C27.2 29.6177 29.6177 27.2 32.6 27.2C35.5823 27.2 38 29.6177 38 32.6Z" stroke="#7027E2" stroke-width="4" stroke-linecap="round" stroke-linejoin="round"/>
</svg>
