<svg width="48" height="47" viewBox="0 0 48 47" fill="none" xmlns="http://www.w3.org/2000/svg">
<path fill-rule="evenodd" clip-rule="evenodd" d="M46.8898 3.79435C47.8474 3.31677 48.2607 2.17375 47.8295 1.19634C47.3983 0.218926 46.2742 -0.248988 45.2745 0.132806L39.7547 2.24088C39.183 2.45927 37.8967 3.00292 37.3426 4.374C37.0052 5.20886 36.9524 6.13351 37.1863 6.99793L31.4071 12.386C31.2835 11.8145 31.0892 11.2445 30.8158 10.6831C29.4748 7.92999 26.271 6.76417 23.3508 7.10337C20.2815 7.45992 17.2047 9.44285 15.5884 13.2971C15.5712 13.3383 15.5553 13.38 15.5408 13.4222C14.5624 16.2778 12.3294 17.8231 9.15871 18.3047C3.5931 19.15 -0.420926 24.1785 0.0353224 29.7714C0.786302 38.9773 8.04175 46.2156 17.2693 46.9648C22.8753 47.42 27.9159 43.4154 28.7632 37.8628C29.0262 36.1391 29.5023 34.5898 30.2497 33.4671C30.9509 32.4139 31.8727 31.745 33.2345 31.5906C36.4788 31.2229 38.4929 29.2717 38.9937 26.8846C39.4448 24.7353 38.5802 22.1192 36.2255 21.1321C34.0935 20.2383 32.3316 21.0033 31.3222 21.4415C31.263 21.4671 31.206 21.492 31.1522 21.515C30.122 21.9552 29.8135 22.0109 29.2723 21.7387C28.7236 21.4627 28.5564 21.1271 28.5181 20.9542C28.4884 20.8193 28.4936 20.6208 28.7212 20.3721L39.7738 10.0676C41.0071 10.6393 42.5185 10.4176 43.5361 9.40259C44.4213 8.51924 45.0388 7.40435 45.3168 6.1863L45.7312 4.37234L46.8898 3.79435ZM25.8968 17.5238C25.8605 17.5591 25.8256 17.5954 25.7922 17.6328C24.7038 18.7998 24.2684 20.326 24.5974 21.816C24.9331 23.3356 26.0056 24.5815 27.4652 25.3155C29.7553 26.4668 31.6163 25.6739 32.733 25.1967C33.9064 24.6952 34.1878 24.6223 34.6704 24.8246C34.8302 24.8917 35.223 25.3061 35.064 26.0639C34.9548 26.5842 34.4915 27.4171 32.7812 27.6109C30.067 27.9185 28.158 29.3697 26.9053 31.2512C25.6991 33.063 25.0989 35.2631 24.794 37.26C24.2618 40.7479 21.0845 43.256 17.5949 42.9726C10.3277 42.3826 4.62834 36.6967 4.0369 29.4466C3.75291 25.9653 6.26698 22.7955 9.76298 22.2644C14.0296 21.6163 17.7318 19.3243 19.3158 14.7871C20.3809 12.2964 22.2118 11.2681 23.8151 11.0818C25.5797 10.8769 26.822 11.6479 27.2046 12.4336C27.9315 13.926 27.5152 15.9092 25.9257 17.4947C25.9161 17.5044 25.9065 17.5141 25.8968 17.5238ZM18.3043 24.6191C17.5203 23.8369 16.2493 23.8369 15.4653 24.6191C14.6814 25.4012 14.6814 26.6693 15.4653 27.4513L18.4765 30.4553C19.2604 31.2374 20.5314 31.2374 21.3153 30.4553C22.0992 29.6733 22.0992 28.4052 21.3153 27.6231L18.3043 24.6191ZM19.308 33.6312L16.2969 30.6272C15.5129 29.8449 14.2419 29.8449 13.4579 30.6272C12.674 31.4092 12.674 32.6773 13.4579 33.4593L16.469 36.4633C17.253 37.2454 18.524 37.2454 19.308 36.4633C20.0918 35.6813 20.0918 34.4132 19.308 33.6312Z" fill="#7027E2"/>
</svg>
